<svg id="Layer_1" data-name="Layer 1" xmlns="http://www.w3.org/2000/svg" viewBox="0 0 123.72 129.2"><defs><style>.cls-1,.cls-2{stroke:#231f20;stroke-miterlimit:10;}.cls-2{fill:red;}</style></defs><title>klingon</title><circle class="cls-1" cx="148.15" cy="178.16" r="33" transform="translate(-122.05 239.46) rotate(-89.57)"/><path class="cls-2" d="M130.76,170.3c2-4.81,3.88-9.86,5.64-15.14a245.5,245.5,0,0,0,12.45-69.63,231.81,231.81,0,0,0,11.85,71.65q2.33,6.94,4.95,13.34-4.46,7.65-8.94,15.28c-3.67,6.27-7.31,12.46-8.7,14.82Z" transform="translate(-90.93 -85.51)"/><path class="cls-2" d="M146.61,202.46c-1.63-3.69-45-3-54.58,11.09-6.21-21.67,38.63-28.21,37.18-41.22C131.87,177.14,143.64,197.42,146.61,202.46Z" transform="translate(-90.93 -85.51)"/><path class="cls-2" d="M150.12,201.17c3.45-.21,8.2-1.87,15.5-0.07,12.48,3.08,17.22,2.7,24.73,2.19,5.31-.36,13.06-2.06,22.31-8.58a43.2,43.2,0,0,1-23.35-2.92,45.26,45.26,0,0,1-11.82-7.71,52,52,0,0,1-10.35-12.33q-4.29,7.43-8.59,14.86C154.88,192.94,151.22,199.24,150.12,201.17Z" transform="translate(-90.93 -85.51)"/></svg>