<svg id="Layer_1" data-name="Layer 1" xmlns="http://www.w3.org/2000/svg" viewBox="0 0 56.57 95.67"><defs><style>.cls-1{fill:#ff404e;}.cls-1,.cls-2{stroke:#231f20;stroke-miterlimit:10;}.cls-2{fill:#fcf351;}</style></defs><title>starfleet</title><circle class="cls-1" cx="28.28" cy="44.8" r="27.78"/><path class="cls-2" d="M151.41,104c-0.68.79-2.06,2.44-3.67,4.59,0,0-16.05,21.41-24.31,87.36h0c4.29-8.54,12.77-21.67,28-28.18a47.24,47.24,0,0,1,5.07-1.83c0.77,1,1.53,2.08,2.27,3.21A54.19,54.19,0,0,1,167,193.88c2.13-26.24-.38-55.37-12.84-83.94Q152.84,106.89,151.41,104Z" transform="translate(-121.22 -103.06)"/><path class="cls-1" d="M150,122.65L152.49,141l7.34,1.38-5.67,3.75,1,6L150,147l-5.64,5.13,1-6-6.24-3.75,7.91-1.38Z" transform="translate(-121.22 -103.06)"/></svg>